<svg width="29" height="35" viewBox="0 0 29 35" fill="none" xmlns="http://www.w3.org/2000/svg">
<path d="M28.41 27.416C28.41 28.2267 27.6633 29.4213 26.17 31C24.6767 32.6213 23.546 33.432 22.778 33.432C21.5407 32.92 18.4687 29.4213 13.562 22.936C10.106 28.696 7.97267 32.536 7.162 34.456C6.09533 34.456 4.858 33.9227 3.45 32.856C2.08467 31.832 1.23133 30.936 0.89 30.168C0.89 29.3573 3.62067 24.92 9.082 16.856C4.94333 11.096 2.874 7.896 2.874 7.256C3.13 6.36 3.834 5.35733 4.986 4.248C6.138 3.13866 7.18333 2.456 8.122 2.2C8.46333 3.18133 10.2553 5.976 13.498 10.584C17.6367 4.824 20.538 1.32533 22.202 0.0879993C22.6713 0.0879993 23.674 0.557332 25.21 1.496C26.746 2.43467 27.514 3.13867 27.514 3.608C24.6127 6.552 21.37 10.776 17.786 16.28C22.394 22.2533 25.9353 25.9653 28.41 27.416Z" fill="#D70000"/>
</svg>
